<svg width="479" height="365" viewBox="0 0 479 365" fill="none" xmlns="http://www.w3.org/2000/svg">
<path d="M287.082 272.13C268.878 293.02 244.402 307.621 217.09 313.882C189.779 320.143 161.005 317.75 134.809 307.039C108.613 296.328 86.3114 277.837 71.0364 254.162C55.7613 230.488 48.2801 202.82 49.6434 175.044C51.0067 147.268 61.146 120.78 78.6374 99.2989C96.1288 77.818 120.093 62.4238 147.166 55.2784C174.238 48.133 203.058 49.5952 229.578 59.4598C256.098 69.3244 271.041 76.1167 287.082 99.2989L250.549 139.902C240.949 126.028 227.251 115.393 211.38 109.489C195.509 103.586 178.261 102.711 162.059 106.987C145.858 111.263 131.516 120.476 121.048 133.332C110.58 146.187 104.512 162.04 103.696 178.662C102.88 195.285 107.357 211.844 116.499 226.012C125.64 240.18 138.987 251.246 154.664 257.657C170.342 264.067 187.562 265.499 203.907 261.752C220.252 258.005 234.9 249.266 245.795 236.765L287.082 272.13Z" fill="#E4CF11"/>
<path d="M77.9568 100.054L128.457 125.554L122.457 131.554L117.957 137.554L67.9568 114.554L72.9568 106.554L77.9568 100.054Z" fill="white"/>
<path d="M77.2965 263.867L116.651 223.226L120.597 230.738L124.989 236.818L88.1699 277.724L82.0171 270.573L77.2965 263.867Z" fill="white"/>
<path d="M252.025 191.554L252.025 169.736L255.264 169.736L255.264 173.031L255.491 173.031C255.889 171.952 256.608 171.076 257.65 170.403C258.692 169.731 259.866 169.395 261.173 169.395C261.419 169.395 261.727 169.4 262.096 169.409C262.465 169.419 262.745 169.433 262.934 169.452L262.934 172.861C262.82 172.832 262.56 172.79 262.153 172.733C261.755 172.667 261.334 172.633 260.889 172.633C259.828 172.633 258.881 172.856 258.048 173.301C257.224 173.737 256.57 174.343 256.088 175.119C255.614 175.886 255.377 176.762 255.377 177.747L255.377 191.554L252.025 191.554ZM269.731 199.736C269.163 199.736 268.656 199.688 268.211 199.594C267.766 199.508 267.458 199.423 267.288 199.338L268.14 196.383C268.954 196.592 269.674 196.668 270.299 196.611C270.924 196.554 271.478 196.275 271.961 195.773C272.454 195.28 272.903 194.48 273.311 193.372L273.936 191.668L265.867 169.736L269.504 169.736L275.526 187.122L275.754 187.122L281.776 169.736L285.413 169.736L276.151 194.736C275.735 195.863 275.219 196.795 274.603 197.534C273.988 198.282 273.273 198.836 272.458 199.196C271.653 199.556 270.744 199.736 269.731 199.736ZM289.838 199.736L289.838 169.736L293.076 169.736L293.076 173.202L293.474 173.202C293.72 172.823 294.061 172.34 294.497 171.753C294.942 171.156 295.576 170.626 296.4 170.162C297.233 169.688 298.36 169.452 299.781 169.452C301.618 169.452 303.237 169.911 304.639 170.829C306.04 171.748 307.134 173.05 307.92 174.736C308.706 176.421 309.099 178.41 309.099 180.702C309.099 183.012 308.706 185.015 307.92 186.71C307.134 188.396 306.045 189.703 304.653 190.631C303.261 191.549 301.656 192.008 299.838 192.008C298.436 192.008 297.314 191.776 296.471 191.312C295.628 190.839 294.98 190.304 294.525 189.707C294.07 189.101 293.72 188.599 293.474 188.202L293.19 188.202L293.19 199.736L289.838 199.736ZM293.133 180.645C293.133 182.293 293.374 183.746 293.857 185.006C294.34 186.256 295.046 187.236 295.974 187.946C296.902 188.647 298.038 188.997 299.383 188.997C300.784 188.997 301.954 188.628 302.892 187.889C303.838 187.141 304.549 186.137 305.022 184.878C305.505 183.609 305.747 182.198 305.747 180.645C305.747 179.111 305.51 177.728 305.036 176.497C304.572 175.257 303.867 174.276 302.92 173.557C301.982 172.828 300.803 172.463 299.383 172.463C298.019 172.463 296.874 172.809 295.945 173.5C295.017 174.182 294.317 175.138 293.843 176.369C293.37 177.591 293.133 179.016 293.133 180.645ZM323.701 169.736L323.701 172.577L312.394 172.577L312.394 169.736L323.701 169.736ZM315.69 164.508L319.042 164.508L319.042 185.304C319.042 186.251 319.179 186.961 319.454 187.435C319.738 187.899 320.098 188.211 320.534 188.372C320.979 188.524 321.447 188.599 321.94 188.599C322.309 188.599 322.612 188.58 322.849 188.543C323.086 188.495 323.275 188.457 323.417 188.429L324.099 191.44C323.872 191.526 323.554 191.611 323.147 191.696C322.74 191.791 322.224 191.838 321.599 191.838C320.652 191.838 319.724 191.634 318.815 191.227C317.915 190.82 317.167 190.2 316.57 189.366C315.983 188.533 315.69 187.482 315.69 186.213L315.69 164.508ZM337.373 192.008C335.403 192.008 333.675 191.54 332.188 190.602C330.711 189.665 329.556 188.353 328.722 186.668C327.899 184.982 327.487 183.012 327.487 180.758C327.487 178.486 327.899 176.502 328.722 174.807C329.556 173.112 330.711 171.795 332.188 170.858C333.675 169.92 335.403 169.452 337.373 169.452C339.343 169.452 341.066 169.92 342.543 170.858C344.03 171.795 345.186 173.112 346.009 174.807C346.843 176.502 347.259 178.486 347.259 180.758C347.259 183.012 346.843 184.982 346.009 186.668C345.186 188.353 344.03 189.665 342.543 190.602C341.066 191.54 339.343 192.008 337.373 192.008ZM337.373 188.997C338.869 188.997 340.1 188.614 341.066 187.847C342.032 187.079 342.747 186.071 343.211 184.821C343.675 183.571 343.907 182.217 343.907 180.758C343.907 179.3 343.675 177.941 343.211 176.682C342.747 175.422 342.032 174.404 341.066 173.628C340.1 172.851 338.869 172.463 337.373 172.463C335.877 172.463 334.646 172.851 333.68 173.628C332.714 174.404 331.999 175.422 331.535 176.682C331.071 177.941 330.839 179.3 330.839 180.758C330.839 182.217 331.071 183.571 331.535 184.821C331.999 186.071 332.714 187.079 333.68 187.847C334.646 188.614 335.877 188.997 337.373 188.997ZM355.729 178.429L355.729 191.554L352.377 191.554L352.377 162.463L355.729 162.463L355.729 173.145L356.013 173.145C356.524 172.018 357.291 171.123 358.314 170.46C359.346 169.788 360.719 169.452 362.433 169.452C363.92 169.452 365.222 169.75 366.34 170.347C367.457 170.934 368.324 171.838 368.939 173.06C369.564 174.272 369.877 175.815 369.877 177.69L369.877 191.554L366.524 191.554L366.524 177.918C366.524 176.185 366.075 174.845 365.175 173.898C364.285 172.941 363.049 172.463 361.468 172.463C360.369 172.463 359.384 172.695 358.513 173.159C357.651 173.623 356.969 174.3 356.468 175.19C355.975 176.08 355.729 177.16 355.729 178.429ZM389.759 182.633L389.759 169.736L393.112 169.736L393.112 191.554L389.759 191.554L389.759 187.861L389.532 187.861C389.021 188.969 388.225 189.911 387.146 190.687C386.066 191.454 384.703 191.838 383.055 191.838C381.691 191.838 380.479 191.54 379.418 190.943C378.358 190.337 377.525 189.428 376.918 188.216C376.312 186.994 376.009 185.455 376.009 183.599L376.009 169.736L379.362 169.736L379.362 183.372C379.362 184.963 379.807 186.232 380.697 187.179C381.597 188.126 382.742 188.599 384.134 188.599C384.968 188.599 385.815 188.386 386.677 187.96C387.548 187.534 388.277 186.881 388.865 186C389.461 185.119 389.759 183.997 389.759 182.633ZM402.604 178.429L402.604 191.554L399.252 191.554L399.252 169.736L402.49 169.736L402.49 173.145L402.774 173.145C403.286 172.037 404.062 171.147 405.104 170.474C406.146 169.793 407.49 169.452 409.138 169.452C410.615 169.452 411.908 169.755 413.016 170.361C414.124 170.957 414.985 171.866 415.601 173.088C416.217 174.3 416.524 175.834 416.524 177.69L416.524 191.554L413.172 191.554L413.172 177.918C413.172 176.204 412.727 174.868 411.837 173.912C410.947 172.946 409.725 172.463 408.172 172.463C407.102 172.463 406.146 172.695 405.303 173.159C404.469 173.623 403.811 174.3 403.328 175.19C402.845 176.08 402.604 177.16 402.604 178.429ZM432.139 169.736L432.139 172.577L420.832 172.577L420.832 169.736L432.139 169.736ZM424.127 164.508L427.48 164.508L427.48 185.304C427.48 186.251 427.617 186.961 427.892 187.435C428.176 187.899 428.535 188.211 428.971 188.372C429.416 188.524 429.885 188.599 430.377 188.599C430.747 188.599 431.05 188.58 431.286 188.543C431.523 188.495 431.713 188.457 431.855 188.429L432.536 191.44C432.309 191.526 431.992 191.611 431.585 191.696C431.177 191.791 430.661 191.838 430.036 191.838C429.089 191.838 428.161 191.634 427.252 191.227C426.353 190.82 425.605 190.2 425.008 189.366C424.421 188.533 424.127 187.482 424.127 186.213L424.127 164.508ZM446.095 192.008C443.992 192.008 442.179 191.544 440.654 190.616C439.139 189.679 437.97 188.372 437.146 186.696C436.331 185.01 435.924 183.05 435.924 180.815C435.924 178.58 436.331 176.611 437.146 174.906C437.97 173.192 439.115 171.857 440.583 170.901C442.061 169.935 443.784 169.452 445.754 169.452C446.89 169.452 448.012 169.641 449.12 170.02C450.228 170.399 451.237 171.014 452.146 171.866C453.055 172.709 453.779 173.827 454.319 175.219C454.859 176.611 455.129 178.325 455.129 180.361L455.129 181.781L438.311 181.781L438.311 178.883L451.72 178.883C451.72 177.652 451.473 176.554 450.981 175.588C450.498 174.622 449.807 173.86 448.907 173.301C448.017 172.742 446.966 172.463 445.754 172.463C444.418 172.463 443.263 172.794 442.288 173.457C441.322 174.111 440.579 174.963 440.058 176.014C439.537 177.065 439.276 178.192 439.276 179.395L439.276 181.327C439.276 182.974 439.561 184.371 440.129 185.517C440.706 186.653 441.507 187.52 442.529 188.116C443.552 188.704 444.74 188.997 446.095 188.997C446.975 188.997 447.771 188.874 448.481 188.628C449.201 188.372 449.821 187.993 450.342 187.491C450.863 186.98 451.265 186.346 451.549 185.588L454.788 186.497C454.447 187.596 453.874 188.562 453.069 189.395C452.264 190.219 451.27 190.863 450.086 191.327C448.902 191.781 447.572 192.008 446.095 192.008ZM460.228 191.554L460.228 169.736L463.467 169.736L463.467 173.031L463.694 173.031C464.092 171.952 464.811 171.076 465.853 170.403C466.895 169.731 468.069 169.395 469.376 169.395C469.622 169.395 469.93 169.4 470.299 169.409C470.668 169.419 470.948 169.433 471.137 169.452L471.137 172.861C471.024 172.832 470.763 172.79 470.356 172.733C469.958 172.667 469.537 172.633 469.092 172.633C468.031 172.633 467.084 172.856 466.251 173.301C465.427 173.737 464.774 174.343 464.291 175.119C463.817 175.886 463.58 176.762 463.58 177.747L463.58 191.554L460.228 191.554Z" fill="white"/>
</svg>
