<svg width="500" height="464" viewBox="0 0 500 464" fill="none" xmlns="http://www.w3.org/2000/svg">
<path d="M287.082 306.13C268.878 327.02 244.402 341.621 217.09 347.882C189.779 354.143 161.005 351.75 134.809 341.039C108.613 330.328 86.3114 311.837 71.0364 288.162C55.7613 264.488 48.2801 236.82 49.6434 209.044C51.0067 181.268 61.146 154.78 78.6374 133.299C96.1288 111.818 120.093 96.4238 147.166 89.2784C174.238 82.133 203.058 83.5952 229.578 93.4598C256.098 103.324 271.041 110.117 287.082 133.299L250.549 173.902C240.949 160.028 227.251 149.393 211.38 143.489C195.509 137.586 178.261 136.711 162.059 140.987C145.858 145.263 131.516 154.476 121.048 167.332C110.58 180.187 104.512 196.04 103.696 212.662C102.88 229.285 107.357 245.844 116.499 260.012C125.64 274.18 138.987 285.246 154.664 291.657C170.342 298.067 187.562 299.499 203.907 295.752C220.252 292.005 234.9 283.266 245.795 270.765L287.082 306.13Z" fill="#E4CF11"/>
<path d="M420.618 263.592C393.166 311.832 322.916 330.327 273.476 302.191C224.036 274.055 206.212 212.14 233.665 163.9C261.117 115.66 323.451 99.3624 372.891 127.498C422.332 155.634 448.071 215.352 420.618 263.592Z" fill="white"/>
<path d="M77.9568 134.054L128.457 159.554L122.457 165.554L117.957 171.554L67.9568 148.554L72.9568 140.554L77.9568 134.054Z" fill="white"/>
<path d="M77.2965 297.867L116.651 257.226L120.597 264.738L124.989 270.818L88.1698 311.724L82.017 304.573L77.2965 297.867Z" fill="white"/>
<path d="M252.025 225.554L252.025 203.736L255.264 203.736L255.264 207.031L255.491 207.031C255.889 205.952 256.608 205.076 257.65 204.403C258.692 203.731 259.866 203.395 261.173 203.395C261.419 203.395 261.727 203.4 262.096 203.409C262.465 203.419 262.745 203.433 262.934 203.452L262.934 206.861C262.82 206.832 262.56 206.79 262.153 206.733C261.755 206.667 261.334 206.633 260.889 206.633C259.828 206.633 258.881 206.856 258.048 207.301C257.224 207.737 256.57 208.343 256.088 209.119C255.614 209.886 255.377 210.762 255.377 211.747L255.377 225.554L252.025 225.554ZM269.731 233.736C269.163 233.736 268.656 233.688 268.211 233.594C267.766 233.508 267.458 233.423 267.288 233.338L268.14 230.383C268.954 230.592 269.674 230.668 270.299 230.611C270.924 230.554 271.478 230.275 271.961 229.773C272.454 229.28 272.903 228.48 273.311 227.372L273.936 225.668L265.867 203.736L269.504 203.736L275.526 221.122L275.754 221.122L281.776 203.736L285.413 203.736L276.151 228.736C275.735 229.863 275.219 230.795 274.603 231.534C273.988 232.282 273.273 232.836 272.458 233.196C271.653 233.556 270.744 233.736 269.731 233.736ZM289.838 233.736L289.838 203.736L293.076 203.736L293.076 207.202L293.474 207.202C293.72 206.823 294.061 206.34 294.497 205.753C294.942 205.156 295.576 204.626 296.4 204.162C297.233 203.688 298.36 203.452 299.781 203.452C301.618 203.452 303.237 203.911 304.639 204.83C306.04 205.748 307.134 207.05 307.92 208.736C308.706 210.421 309.099 212.41 309.099 214.702C309.099 217.012 308.706 219.015 307.92 220.71C307.134 222.396 306.045 223.703 304.653 224.631C303.261 225.549 301.656 226.008 299.838 226.008C298.436 226.008 297.314 225.776 296.471 225.312C295.628 224.839 294.98 224.304 294.525 223.707C294.07 223.101 293.72 222.599 293.474 222.202L293.19 222.202L293.19 233.736L289.838 233.736ZM293.133 214.645C293.133 216.293 293.374 217.746 293.857 219.006C294.34 220.256 295.046 221.236 295.974 221.946C296.902 222.647 298.038 222.997 299.383 222.997C300.784 222.997 301.954 222.628 302.892 221.889C303.838 221.141 304.549 220.137 305.022 218.878C305.505 217.609 305.747 216.198 305.747 214.645C305.747 213.111 305.51 211.728 305.036 210.497C304.572 209.257 303.867 208.276 302.92 207.557C301.982 206.828 300.803 206.463 299.383 206.463C298.019 206.463 296.874 206.809 295.945 207.5C295.017 208.182 294.317 209.138 293.843 210.369C293.37 211.591 293.133 213.016 293.133 214.645ZM323.701 203.736L323.701 206.577L312.394 206.577L312.394 203.736L323.701 203.736ZM315.69 198.508L319.042 198.508L319.042 219.304C319.042 220.251 319.179 220.961 319.454 221.435C319.738 221.899 320.098 222.211 320.534 222.372C320.979 222.524 321.447 222.599 321.94 222.599C322.309 222.599 322.612 222.58 322.849 222.543C323.086 222.495 323.275 222.457 323.417 222.429L324.099 225.44C323.872 225.526 323.554 225.611 323.147 225.696C322.74 225.791 322.224 225.838 321.599 225.838C320.652 225.838 319.724 225.634 318.815 225.227C317.915 224.82 317.167 224.2 316.57 223.366C315.983 222.533 315.69 221.482 315.69 220.213L315.69 198.508ZM337.373 226.008C335.403 226.008 333.675 225.54 332.188 224.602C330.711 223.665 329.556 222.353 328.722 220.668C327.899 218.982 327.487 217.012 327.487 214.758C327.487 212.486 327.899 210.502 328.722 208.807C329.556 207.112 330.711 205.795 332.188 204.858C333.675 203.92 335.403 203.452 337.373 203.452C339.343 203.452 341.066 203.92 342.543 204.858C344.03 205.795 345.186 207.112 346.009 208.807C346.843 210.502 347.259 212.486 347.259 214.758C347.259 217.012 346.843 218.982 346.009 220.668C345.186 222.353 344.03 223.665 342.543 224.602C341.066 225.54 339.343 226.008 337.373 226.008ZM337.373 222.997C338.869 222.997 340.1 222.614 341.066 221.847C342.032 221.08 342.747 220.071 343.211 218.821C343.675 217.571 343.907 216.217 343.907 214.758C343.907 213.3 343.675 211.941 343.211 210.682C342.747 209.422 342.032 208.404 341.066 207.628C340.1 206.851 338.869 206.463 337.373 206.463C335.877 206.463 334.646 206.851 333.68 207.628C332.714 208.404 331.999 209.422 331.535 210.682C331.071 211.941 330.839 213.3 330.839 214.758C330.839 216.217 331.071 217.571 331.535 218.821C331.999 220.071 332.714 221.08 333.68 221.847C334.646 222.614 335.877 222.997 337.373 222.997ZM355.729 212.429L355.729 225.554L352.377 225.554L352.377 196.463L355.729 196.463L355.729 207.145L356.013 207.145C356.524 206.018 357.291 205.123 358.314 204.46C359.346 203.788 360.719 203.452 362.433 203.452C363.92 203.452 365.222 203.75 366.34 204.347C367.457 204.934 368.324 205.838 368.939 207.06C369.564 208.272 369.877 209.815 369.877 211.69L369.877 225.554L366.524 225.554L366.524 211.918C366.524 210.185 366.075 208.845 365.175 207.898C364.285 206.941 363.049 206.463 361.468 206.463C360.369 206.463 359.384 206.695 358.513 207.159C357.651 207.623 356.969 208.3 356.468 209.19C355.975 210.08 355.729 211.16 355.729 212.429ZM389.759 216.633L389.759 203.736L393.112 203.736L393.112 225.554L389.759 225.554L389.759 221.861L389.532 221.861C389.021 222.969 388.225 223.911 387.146 224.687C386.066 225.455 384.703 225.838 383.055 225.838C381.691 225.838 380.479 225.54 379.418 224.943C378.358 224.337 377.525 223.428 376.918 222.216C376.312 220.994 376.009 219.455 376.009 217.599L376.009 203.736L379.362 203.736L379.362 217.372C379.362 218.963 379.807 220.232 380.697 221.179C381.597 222.126 382.742 222.599 384.134 222.599C384.968 222.599 385.815 222.386 386.677 221.96C387.548 221.534 388.277 220.881 388.865 220C389.461 219.119 389.759 217.997 389.759 216.633ZM402.604 212.429L402.604 225.554L399.252 225.554L399.252 203.736L402.49 203.736L402.49 207.145L402.774 207.145C403.286 206.037 404.062 205.147 405.104 204.474C406.146 203.793 407.49 203.452 409.138 203.452C410.615 203.452 411.908 203.755 413.016 204.361C414.124 204.957 414.985 205.866 415.601 207.088C416.217 208.3 416.524 209.834 416.524 211.69L416.524 225.554L413.172 225.554L413.172 211.918C413.172 210.204 412.727 208.868 411.837 207.912C410.947 206.946 409.725 206.463 408.172 206.463C407.102 206.463 406.146 206.695 405.303 207.159C404.469 207.623 403.811 208.3 403.328 209.19C402.845 210.08 402.604 211.16 402.604 212.429ZM432.139 203.736L432.139 206.577L420.832 206.577L420.832 203.736L432.139 203.736ZM424.127 198.508L427.48 198.508L427.48 219.304C427.48 220.251 427.617 220.961 427.892 221.435C428.176 221.899 428.535 222.211 428.971 222.372C429.416 222.524 429.885 222.599 430.377 222.599C430.747 222.599 431.05 222.58 431.286 222.543C431.523 222.495 431.713 222.457 431.855 222.429L432.536 225.44C432.309 225.526 431.992 225.611 431.585 225.696C431.177 225.791 430.661 225.838 430.036 225.838C429.089 225.838 428.161 225.634 427.252 225.227C426.353 224.82 425.605 224.2 425.008 223.366C424.421 222.533 424.127 221.482 424.127 220.213L424.127 198.508ZM446.095 226.008C443.992 226.008 442.179 225.544 440.654 224.616C439.139 223.679 437.97 222.372 437.146 220.696C436.331 219.01 435.924 217.05 435.924 214.815C435.924 212.58 436.331 210.611 437.146 208.906C437.97 207.192 439.115 205.857 440.583 204.901C442.061 203.935 443.784 203.452 445.754 203.452C446.89 203.452 448.012 203.641 449.12 204.02C450.228 204.399 451.237 205.014 452.146 205.866C453.055 206.709 453.779 207.827 454.319 209.219C454.859 210.611 455.129 212.325 455.129 214.361L455.129 215.781L438.311 215.781L438.311 212.883L451.72 212.883C451.72 211.652 451.473 210.554 450.981 209.588C450.498 208.622 449.807 207.86 448.907 207.301C448.017 206.742 446.966 206.463 445.754 206.463C444.418 206.463 443.263 206.794 442.288 207.457C441.322 208.111 440.579 208.963 440.058 210.014C439.537 211.065 439.276 212.192 439.276 213.395L439.276 215.327C439.276 216.974 439.561 218.371 440.129 219.517C440.706 220.653 441.507 221.52 442.529 222.116C443.552 222.704 444.74 222.997 446.095 222.997C446.975 222.997 447.771 222.874 448.481 222.628C449.201 222.372 449.821 221.993 450.342 221.491C450.863 220.98 451.265 220.346 451.549 219.588L454.788 220.497C454.447 221.596 453.874 222.562 453.069 223.395C452.264 224.219 451.27 224.863 450.086 225.327C448.902 225.781 447.572 226.008 446.095 226.008ZM460.228 225.554L460.228 203.736L463.467 203.736L463.467 207.031L463.694 207.031C464.092 205.952 464.811 205.076 465.853 204.403C466.895 203.731 468.069 203.395 469.376 203.395C469.622 203.395 469.93 203.4 470.299 203.409C470.668 203.419 470.948 203.433 471.137 203.452L471.137 206.861C471.024 206.832 470.763 206.79 470.356 206.733C469.958 206.667 469.537 206.633 469.092 206.633C468.031 206.633 467.084 206.856 466.251 207.301C465.427 207.737 464.774 208.343 464.291 209.119C463.817 209.886 463.58 210.762 463.58 211.747L463.58 225.554L460.228 225.554Z" fill="black"/>
</svg>
